<svg width="82" height="92" viewBox="0 0 82 92" fill="none" xmlns="http://www.w3.org/2000/svg">
<g clip-path="url(#clip0_2_72)">
<path d="M35.4165 91.9833C32.0119 91.9833 29.0297 91.5309 26.5517 90.6375C23.5598 89.5597 9.10866 77.5997 7.22072 75.951C4.75518 73.4674 3.039 70.7116 2.11234 67.7464C0.727205 63.3418 0.0346375 59.2611 0.0346375 55.6132V12.256L2.14974 11.8832L24.4643 7.95752L37.3599 18.7225V60.6223L40.4958 58.2699C41.0979 57.8185 41.6475 57.3 42.1344 56.7245C43.8188 54.7309 44.6374 52.1831 44.6374 48.9359V4.40177L46.7525 4.02763L67.9104 0.30016L69.0767 0.0949402L81.9681 10.9199V53.6518C81.9728 57.9998 81.2902 62.3207 79.9458 66.4522C78.5634 70.6576 76.3803 74.5509 73.5188 77.9138C70.6281 81.3314 67.524 83.9518 64.2952 85.701C59.9445 88.0673 54.6838 89.7775 48.6557 90.7882C44.9414 91.3932 41.1951 91.7778 37.4361 91.94C36.7698 91.9665 36.0925 91.9833 35.4165 91.9833Z" fill="#252525"/>
<path fill-rule="evenodd" clip-rule="evenodd" d="M68.3509 2.8284L79.414 12.1191V53.6518C79.4212 57.7236 78.7815 61.7703 77.5191 65.6383C76.2434 69.5287 74.2237 73.1295 71.5741 76.2371C68.8731 79.4294 66.0409 81.8283 63.0777 83.4338C58.9583 85.6675 54.0124 87.2706 48.2401 88.2432C44.6218 88.8287 40.9727 89.2016 37.3114 89.36C33.3647 89.5462 30.0648 89.1618 27.4118 88.2069C24.9892 87.3344 9.84554 74.9444 9.06987 74.1668C6.8712 71.961 5.36555 69.5612 4.55294 66.9673C3.2426 62.7885 2.58743 59.0024 2.58743 55.609V14.4198L23.744 10.691L34.8071 19.9259V62.2487C34.8071 62.539 34.8071 62.8266 34.8251 63.1045C35.0439 63.0751 35.2655 63.043 35.4913 63.0039C39.1425 62.3831 42.0051 60.8475 44.0792 58.3969C46.1532 55.9464 47.1902 52.7941 47.1902 48.9401V6.56145L68.3509 2.8284Z" fill="#FCFCFC"/>
<path d="M47.1929 6.56147L68.3509 2.83121V44.3108C68.3587 48.3797 67.718 52.4234 66.4533 56.2875C65.1802 60.1779 63.1602 63.7778 60.5083 66.8822C57.81 70.0745 54.9793 72.4739 52.016 74.0803C47.8966 76.3242 42.9503 77.9329 37.177 78.9064C33.5587 79.4988 29.9091 79.8783 26.2469 80.0428C22.2993 80.2355 18.9999 79.8562 16.3488 78.905C13.6976 77.9538 11.2708 76.3758 9.06848 74.171C6.86889 71.9652 5.36324 69.5645 4.55155 66.9688C3.24122 62.7927 2.58651 59.0075 2.58743 55.6132V14.4185L23.744 10.6896V52.9621C23.744 56.7399 24.7819 59.5143 26.8578 61.2854C28.9336 63.0565 31.8115 63.6294 35.4913 63.004C39.1425 62.3804 42.0051 60.8447 44.0792 58.397C46.1532 55.9492 47.1902 52.7974 47.1902 48.9415L47.1929 6.56147Z" fill="#33C283"/>
</g>
<defs>
<clipPath id="clip0_2_72">
<rect width="82" height="92" fill="white"/>
</clipPath>
</defs>
</svg>
