<svg width="22" height="21" viewBox="0 0 22 21" fill="none" xmlns="http://www.w3.org/2000/svg">
<path d="M18.79 2.22C15.83 -0.73 11.03 -0.73 8.08999 2.22C6.01999 4.27 5.39999 7.22 6.19999 9.82L1.49999 14.52C1.16999 14.86 0.939994 15.53 1.00999 16.01L1.30999 18.19C1.41999 18.91 2.08999 19.59 2.80999 19.69L4.98999 19.99C5.46999 20.06 6.13999 19.84 6.47999 19.49L7.29999 18.67C7.49999 18.48 7.49999 18.16 7.29999 17.96L5.35999 16.02C5.06999 15.73 5.06999 15.25 5.35999 14.96C5.64999 14.67 6.12999 14.67 6.41999 14.96L8.36999 16.91C8.55999 17.1 8.87999 17.1 9.06999 16.91L11.19 14.8C13.78 15.61 16.73 14.98 18.79 12.93C21.74 9.98 21.74 5.17 18.79 2.22ZM13.5 10C12.12 10 11 8.88 11 7.5C11 6.12 12.12 5 13.5 5C14.88 5 16 6.12 16 7.5C16 8.88 14.88 10 13.5 10Z" fill="#33C283"/>
</svg>
